<?xml version="1.0" encoding="UTF-8"?>
<svg id="Layer_2" data-name="Layer 2" xmlns="http://www.w3.org/2000/svg" viewBox="0 0 464.93 529.5">
  <g id="Layer_1-2" data-name="Layer 1">
    <g>
      <g id="_Radial_Repeat_" data-name="&amp;lt;Radial Repeat&amp;gt;">
        <g id="_Radial_Repeat_-2" data-name="&amp;lt;Radial Repeat&amp;gt;">
          <path d="M313.24,469.3l-65.51,54.64c-8.84,7.41-21.73,7.41-30.57,0l-65.51-54.64,53.72-110.09v-.1c.71.2,1.42.41,2.03.61,1.83.51,3.55.91,5.28,1.22.81.2,1.52.3,2.23.41,1.42.3,2.84.51,4.27.71.2,0,.41.1.61.1h.1c.3,0,.51.1.71.1,1.83.2,3.76.41,5.59.51,2.03.1,4.06.2,5.99.2h.3c2.13,0,4.16-.1,6.19-.2,1.12-.1,2.23-.2,3.25-.3.91,0,1.83-.1,2.74-.3.2,0,.41,0,.71-.1,1.73-.2,3.55-.51,5.38-.81.51-.1,1.02-.2,1.52-.3,2.44-.51,4.87-1.12,7.21-1.83l.1.1,53.62,110.09Z"/>
          <path d="M164.36,335.34c-.71-.51-1.32-1.12-1.93-1.83.51.71,1.22,1.32,1.83,1.93"/>
          <path d="M207.42,359.72c-.61-.1-1.32-.3-2.03-.51v-.1c.71.2,1.42.41,2.03.61Z"/>
          <path d="M259.52,359.11c-2.34.71-4.77,1.32-7.21,1.83,2.44-.51,4.87-1.02,7.31-1.73"/>
          <path d="M300.65,335.34c.2-.1.41-.3.71-.61-.2.3-.41.51-.71.71v-.1Z"/>
          <path d="M312.12,322.14c.61-.81,1.22-1.62,1.83-2.54,0,0-.1,0,0,.1-1.22,1.83-2.54,3.56-3.96,5.28.71-.91,1.42-1.83,2.13-2.84Z"/>
          <path d="M314.05,319.4c1.02-1.63,2.03-3.25,3.05-4.88-.81,1.42-1.63,2.74-2.44,4.06-.2.3-.41.71-.71,1.01,0-.1.1-.2.1-.2Z"/>
          <path d="M322.99,302.85c.61-1.52,1.22-3.15,1.83-4.77-.41,1.22-.91,2.44-1.32,3.66-.2.41-.3.71-.51,1.12Z"/>
          <path d="M324.82,298.07c.3-.71.61-1.52.81-2.34v.2c-.3.71-.51,1.42-.81,2.13Z"/>
          <path d="M327.87,288.53c-.71,2.34-1.42,4.88-2.23,7.21.81-2.44,1.52-4.77,2.13-7.21h.1Z"/>
          <path d="M327.87,241h-.1c-.1-.41-.2-.81-.3-1.32.1.51.3.91.41,1.32Z"/>
        </g>
      </g>
      <g id="_Radial_Repeat_-3" data-name="&amp;lt;Radial Repeat&amp;gt;">
        <g id="_Radial_Repeat_-4" data-name="&amp;lt;Radial Repeat&amp;gt;">
          <path d="M164.36,335.34l-.1.1-68.55,101.56-80.03-29.45c-10.87-3.96-17.26-15.13-15.34-26.51l14.62-83.99,122.17-8.53c.2.51.3.91.3,1.32.51,1.63.91,3.15,1.42,4.67.2.41.3.81.41,1.22.1.2.1.51.2.71,2.64,7.62,6.2,14.93,10.66,21.84.2.3.51.71.71,1.12,1.83,2.74,3.76,5.38,5.99,7.92.61.81,1.22,1.52,1.93,2.34.1.1.2.2.3.41.1.1.2.2.3.2l.3.3c0,.1,0,.2.1.2.81.91,1.73,1.83,2.64,2.74.61.71,1.22,1.32,1.93,1.83Z"/>
          <path d="M147.4,215.61c.3-.51.61-1.12,1.02-1.62-.81,1.32-1.52,2.64-2.23,3.96.3-.81.81-1.52,1.22-2.34Z"/>
          <path d="M150.95,209.82h.1c-.81,1.22-1.52,2.34-2.23,3.55.61-1.22,1.42-2.34,2.13-3.55Z"/>
          <path d="M159.69,330.57c0,.1,0,.2.1.2-.2-.2-.51-.51-.71-.71-.1-.1-.2-.3-.3-.41.3.3.51.61.91.91Z"/>
          <path d="M158.26,200.37c.51-.61.91-1.12,1.52-1.62-1.02,1.02-1.93,2.13-2.94,3.35.41-.61.91-1.12,1.42-1.73Z"/>
          <path d="M164.36,335.34c-.71-.51-1.32-1.12-1.93-1.83.51.71,1.22,1.32,1.83,1.93"/>
          <path d="M232.5,166.55c1.73,0,3.35,0,5.08.1-3.45-.2-6.8-.2-10.16,0,1.73-.1,3.35-.1,5.08-.1Z"/>
          <path d="M251.29,168.28c.41.1.71.2,1.02.3-1.63-.41-3.25-.61-4.88-.91,1.32.2,2.64.41,3.86.61Z"/>
          <path d="M297.81,191.34c.2.2.3.3.51.61-.3-.41-.61-.61-.91-.91.1.1.2.2.41.3Z"/>
          <path d="M307.76,201.69c-.61-.81-1.32-1.63-1.93-2.34.1.1.1.2.2.2.61.71,1.12,1.42,1.73,2.13Z"/>
          <path d="M314.05,319.4c1.02-1.63,2.03-3.25,3.05-4.88-.81,1.42-1.63,2.74-2.44,4.06-.2.2-.41.51-.61.81Z"/>
          <path d="M324.82,298.07c-.41,1.22-.91,2.44-1.32,3.66-.81,1.93-1.73,3.86-2.64,5.79,1.52-3.05,2.84-6.19,3.96-9.44Z"/>
        </g>
      </g>
      <g id="_Radial_Repeat_-5" data-name="&amp;lt;Radial Repeat&amp;gt;">
        <g id="_Radial_Repeat_-6" data-name="&amp;lt;Radial Repeat&amp;gt;">
          <path d="M164.26,194.08c-.81.71-1.73,1.62-2.44,2.44-.81.71-1.42,1.52-2.03,2.23-1.02,1.02-1.93,2.13-2.94,3.35,0,0-.2.1-.1.2-.91,1.02-1.73,2.03-2.54,3.05-.2.3-.51.71-.71,1.02-.91,1.12-1.73,2.23-2.44,3.45-.81,1.22-1.52,2.34-2.23,3.55-.2.2-.3.41-.41.61-.81,1.32-1.52,2.64-2.23,3.96-1.02,1.73-1.93,3.55-2.74,5.38-.51,1.02-1.02,2.03-1.42,3.15-.2.3-.3.61-.41,1.02-.51,1.12-.91,2.24-1.32,3.35-.1,0,0,.1,0,.1-.41.91-.71,1.83-1.02,2.74-.2.61-.3,1.12-.51,1.63-.61,1.93-1.12,3.76-1.63,5.69l-122.17-8.53L.34,148.38c-1.93-11.38,4.47-22.55,15.34-26.51l80.03-29.35,68.55,101.56Z"/>
          <path d="M147.4,215.61c.3-.51.61-1.12,1.02-1.62-.81,1.32-1.52,2.64-2.23,3.96.3-.81.81-1.52,1.22-2.34Z"/>
          <path d="M150.95,209.82c.81-1.12,1.63-2.34,2.54-3.45-.91,1.12-1.73,2.23-2.44,3.45-.81,1.22-1.52,2.34-2.23,3.55.61-1.22,1.42-2.34,2.13-3.55Z"/>
          <path d="M158.77,329.66c.3.3.51.61.91.91-.3-.2-.41-.3-.61-.51-.1-.1-.2-.3-.3-.41Z"/>
          <path d="M158.26,200.37c1.12-1.32,2.34-2.64,3.55-3.86-.81.71-1.42,1.52-2.03,2.23-1.02,1.02-1.93,2.13-2.94,3.35.41-.61.91-1.12,1.42-1.73Z"/>
          <path d="M232.5,166.55c1.73,0,3.35,0,5.08.1-3.45-.2-6.8-.2-10.16,0,1.73-.1,3.35-.1,5.08-.1Z"/>
          <path d="M251.29,168.28c1.32.2,2.54.51,3.86.91-.91-.3-1.83-.51-2.84-.61-1.63-.41-3.25-.61-4.88-.91,1.32.2,2.64.41,3.86.61Z"/>
          <path d="M297.81,191.34c.2.2.51.51.71.71,0-.1-.1-.1-.2-.1-.3-.41-.61-.61-.91-.91.1.1.2.2.41.3Z"/>
          <path d="M306.03,199.56c.61.71,1.12,1.42,1.73,2.13-.61-.81-1.32-1.63-1.93-2.34.1.1.1.2.2.2Z"/>
          <path d="M312.12,322.14c.61-.81,1.22-1.62,1.83-2.54,0,0-.1,0,0,.1-.71.81-1.22,1.63-1.83,2.44Z"/>
          <path d="M324.82,298.07c.3-.71.61-1.52.81-2.34v.2c-.3.71-.51,1.42-.81,2.13Z"/>
        </g>
      </g>
      <g id="_Radial_Repeat_-7" data-name="&amp;lt;Radial Repeat&amp;gt;">
        <g id="_Radial_Repeat_-8" data-name="&amp;lt;Radial Repeat&amp;gt;">
          <path d="M313.24,60.22l-53.62,110.09h-.1c-1.52-.51-2.94-.81-4.37-1.12-.91-.3-1.83-.51-2.84-.61-1.63-.41-3.25-.61-4.88-.91-1.62-.2-3.25-.41-4.87-.61-1.62-.2-3.35-.3-4.98-.41-3.45-.2-6.8-.2-10.16,0-1.63.1-3.35.2-4.98.41-1.63.2-3.25.41-4.88.61-3.05.41-6.09,1.12-9.14,1.83-1.02.3-2.03.51-3.05.81l-53.72-110.09L217.17,5.48c8.84-7.31,21.73-7.31,30.57,0l65.51,54.74Z"/>
          <path d="M164.36,335.34c-.71-.51-1.32-1.12-1.93-1.83.51.71,1.22,1.32,1.83,1.93"/>
          <path d="M207.42,359.72c-.61-.1-1.32-.3-2.03-.51v-.1c.71.2,1.42.41,2.03.61Z"/>
          <path d="M259.52,359.11c-2.34.71-4.77,1.32-7.21,1.83,2.44-.51,4.87-1.02,7.31-1.73"/>
          <path d="M300.65,335.34c.2-.1.41-.3.71-.61-.2.3-.41.51-.71.71v-.1Z"/>
          <path d="M312.12,322.14c.61-.81,1.22-1.62,1.83-2.54,0,0-.1,0,0,.1-1.22,1.83-2.54,3.56-3.96,5.28.71-.91,1.42-1.83,2.13-2.84Z"/>
          <path d="M314.05,319.4c1.02-1.63,2.03-3.25,3.05-4.88-.81,1.42-1.63,2.74-2.44,4.06-.2.3-.41.71-.71,1.01,0-.1.1-.2.1-.2Z"/>
          <path d="M322.99,302.85c.61-1.52,1.22-3.15,1.83-4.77-.41,1.22-.91,2.44-1.32,3.66-.2.41-.3.71-.51,1.12Z"/>
          <path d="M324.82,298.07c.3-.71.61-1.52.81-2.34v.2c-.3.71-.51,1.42-.81,2.13Z"/>
          <path d="M327.87,288.53c-.71,2.34-1.42,4.88-2.23,7.21.81-2.44,1.52-4.77,2.13-7.21h.1Z"/>
          <path d="M327.87,241h-.1c-.1-.41-.2-.81-.3-1.32.1.51.3.91.41,1.32Z"/>
        </g>
      </g>
      <g id="_Radial_Repeat_-9" data-name="&amp;lt;Radial Repeat&amp;gt;">
        <g id="_Radial_Repeat_-10" data-name="&amp;lt;Radial Repeat&amp;gt;">
          <path d="M464.56,148.38l-14.52,84.09-122.17,8.53h-.1c-.1-.41-.2-.81-.3-1.32-.51-2.03-1.12-4.06-1.83-5.99-.1-.51-.3-.91-.51-1.42-.3-1.12-.81-2.24-1.22-3.35-.91-2.34-1.93-4.67-3.05-7.01-1.12-2.34-2.34-4.67-3.76-7.01-.51-1.02-1.12-1.93-1.73-2.84-.41-.61-.81-1.32-1.22-1.93-.61-.91-1.32-1.93-2.03-2.84-.41-.61-.81-1.12-1.22-1.63-.91-1.32-2.03-2.64-3.15-3.96-.61-.71-1.12-1.42-1.73-2.13q-.1-.1-.2-.2c-.2-.2-.41-.41-.61-.61-.1-.1-.2-.3-.3-.41-1.22-1.32-2.44-2.54-3.66-3.66-.2-.3-.41-.51-.61-.61l68.55-101.56,80.13,29.35c10.77,3.96,17.26,15.13,15.23,26.51Z"/>
          <path d="M147.4,215.61c.3-.51.61-1.12,1.02-1.62-.81,1.32-1.52,2.64-2.23,3.96.3-.81.81-1.52,1.22-2.34Z"/>
          <path d="M150.95,209.82h.1c-.81,1.22-1.52,2.34-2.23,3.55.61-1.22,1.42-2.34,2.13-3.55Z"/>
          <path d="M159.69,330.57c0,.1,0,.2.1.2-.2-.2-.51-.51-.71-.71-.1-.1-.2-.3-.3-.41.3.3.51.61.91.91Z"/>
          <path d="M158.26,200.37c.51-.61.91-1.12,1.52-1.62-1.02,1.02-1.93,2.13-2.94,3.35.41-.61.91-1.12,1.42-1.73Z"/>
          <path d="M164.36,335.34c-.71-.51-1.32-1.12-1.93-1.83.51.71,1.22,1.32,1.83,1.93"/>
          <path d="M232.5,166.55c1.73,0,3.35,0,5.08.1-3.45-.2-6.8-.2-10.16,0,1.73-.1,3.35-.1,5.08-.1Z"/>
          <path d="M251.29,168.28c.41.1.71.2,1.02.3-1.63-.41-3.25-.61-4.88-.91,1.32.2,2.64.41,3.86.61Z"/>
          <path d="M297.81,191.34c.2.2.3.3.51.61-.3-.41-.61-.61-.91-.91.1.1.2.2.41.3Z"/>
          <path d="M307.76,201.69c-.61-.81-1.32-1.63-1.93-2.34.1.1.1.2.2.2.61.71,1.12,1.42,1.73,2.13Z"/>
          <path d="M314.05,319.4c1.02-1.63,2.03-3.25,3.05-4.88-.81,1.42-1.63,2.74-2.44,4.06-.2.2-.41.51-.61.81Z"/>
          <path d="M324.82,298.07c-.41,1.22-.91,2.44-1.32,3.66-.81,1.93-1.73,3.86-2.64,5.79,1.52-3.05,2.84-6.19,3.96-9.44Z"/>
        </g>
      </g>
      <g id="_Radial_Repeat_-11" data-name="&amp;lt;Radial Repeat&amp;gt;">
        <g id="_Radial_Repeat_-12" data-name="&amp;lt;Radial Repeat&amp;gt;">
          <path d="M449.33,407.55l-80.13,29.45-68.55-101.56v-.1c.2-.1.41-.3.71-.61.41-.3.81-.71,1.12-1.12,1.22-1.22,2.44-2.54,3.66-3.86.51-.61,1.02-1.22,1.52-1.83.61-.71,1.12-1.32,1.62-2.03.2-.3.51-.61.71-.91.71-.91,1.42-1.83,2.13-2.84.61-.81,1.12-1.62,1.83-2.44v-.1c0-.1.1-.2.1-.2,1.02-1.63,2.03-3.25,3.05-4.88.1-.2.3-.51.41-.71.3-.2.41-.51.41-.71,1.02-1.73,1.93-3.45,2.84-5.28,0-.1,0-.2.1-.3.71-1.52,1.52-3.05,2.13-4.67.61-1.52,1.22-3.15,1.83-4.77.3-.71.61-1.52.81-2.34.81-2.44,1.52-4.77,2.13-7.21h.1l122.17,8.53,14.52,83.99c2.03,11.38-4.47,22.55-15.23,26.51Z"/>
          <path d="M147.4,215.61c.3-.51.61-1.12,1.02-1.62-.81,1.32-1.52,2.64-2.23,3.96.3-.81.81-1.52,1.22-2.34Z"/>
          <path d="M150.95,209.82c.81-1.12,1.63-2.34,2.54-3.45-.91,1.12-1.73,2.23-2.44,3.45-.81,1.22-1.52,2.34-2.23,3.55.61-1.22,1.42-2.34,2.13-3.55Z"/>
          <path d="M158.77,329.66c.3.3.51.61.91.91-.3-.2-.41-.3-.61-.51-.1-.1-.2-.3-.3-.41Z"/>
          <path d="M158.26,200.37c1.12-1.32,2.34-2.64,3.55-3.86-.81.71-1.42,1.52-2.03,2.23-1.02,1.02-1.93,2.13-2.94,3.35.41-.61.91-1.12,1.42-1.73Z"/>
          <path d="M232.5,166.55c1.73,0,3.35,0,5.08.1-3.45-.2-6.8-.2-10.16,0,1.73-.1,3.35-.1,5.08-.1Z"/>
          <path d="M251.29,168.28c1.32.2,2.54.51,3.86.91-.91-.3-1.83-.51-2.84-.61-1.63-.41-3.25-.61-4.88-.91,1.32.2,2.64.41,3.86.61Z"/>
          <path d="M297.81,191.34c.2.2.51.51.71.71,0-.1-.1-.1-.2-.1-.3-.41-.61-.61-.91-.91.1.1.2.2.41.3Z"/>
          <path d="M306.03,199.56c.61.71,1.12,1.42,1.73,2.13-.61-.81-1.32-1.63-1.93-2.34.1.1.1.2.2.2Z"/>
          <path d="M312.12,322.14c.61-.81,1.22-1.62,1.83-2.54,0,0-.1,0,0,.1-.71.81-1.22,1.63-1.83,2.44Z"/>
          <path d="M324.82,298.07c.3-.71.61-1.52.81-2.34v.2c-.3.71-.51,1.42-.81,2.13Z"/>
        </g>
      </g>
    </g>
  </g>
</svg>