<?xml version="1.0" encoding="UTF-8"?>
<svg id="Layer_1" data-name="Layer 1" xmlns="http://www.w3.org/2000/svg" viewBox="0 0 1300 900">
  <defs>
    <style>
      .cls-1 {
        fill: #56db56;
      }

      .cls-2 {
        fill: #f7fdf7;
      }

      .cls-3 {
        fill: #272b27;
      }
    </style>
  </defs>
  <rect class="cls-3" x="-15.6" y="-10.8" width="1331.2" height="921.6"/>
  <g>
    <g>
      <path class="cls-2" d="M510.09,428.5h-20.17v43h19.48c11.26,0,20.24-5.12,20.24-16.38v-10.18c0-11.26-8.09-16.44-19.54-16.44ZM520.08,453.48c0,7.27-5,10.18-10.69,10.18h-9.99v-27.26h10.69c5.63,0,9.99,3.16,9.99,10.18v6.89Z"/>
      <polygon class="cls-2" points="577.77 446.46 553.86 446.46 553.86 428.5 544.25 428.5 544.25 471.5 553.86 471.5 553.86 454.36 577.77 454.36 577.77 471.5 587.44 471.5 587.44 428.5 577.77 428.5 577.77 446.46"/>
      <path class="cls-2" d="M622.77,436.02c5.31,0,9.17,1.14,12.52,3.1l3.54-6.96c-4.74-3.1-9.42-4.3-16.7-4.3-10.75,0-19.92,6.01-19.92,15.87v12.46c0,10.62,8.47,15.94,19.98,15.94,7.4,0,11.64-1.07,16.19-3.86l-3.22-7.15c-3.23,2.02-7.53,2.91-12.33,2.91-6.32,0-11-2.47-11-8.35v-11.38c0-5.31,5.12-8.28,10.94-8.28Z"/>
      <path class="cls-2" d="M672.81,428.5h-20.24v43h5.5v-16.32h14.86c10.37,0,16.19-3.92,16.19-11.45v-2.97c0-7.59-5.56-12.27-16.31-12.27ZM683.62,443.23c0,5-3.54,7.4-11.07,7.4h-14.48v-17.26h14.48c7.59,0,11.07,3.16,11.07,7.84v2.02Z"/>
      <path class="cls-2" d="M723.99,427.87h-1.01c-11.26,0-19.41,6.01-19.41,15.62v12.9c0,10.31,7.84,15.75,19.48,15.75h.95c11.95,0,20.17-5.56,20.17-15.75v-12.9c0-9.61-8.66-15.62-20.17-15.62ZM738.6,455.94c0,7.65-5.75,11.38-14.61,11.38h-.95c-8.47,0-13.98-3.67-13.98-11.38v-12.02c0-6.89,5.82-11.19,13.91-11.19h1.01c8.48,0,14.61,4.17,14.61,11.26v11.95Z"/>
      <polygon class="cls-2" points="804.66 464.8 791.38 428.5 786.26 428.5 772.98 464.74 762.54 428.5 756.79 428.5 769.31 471.5 775.64 471.5 788.79 436.02 801.88 471.5 808.2 471.5 820.85 428.5 815.1 428.5 804.66 464.8"/>
      <polygon class="cls-2" points="841.41 451.9 863.61 451.9 863.61 447.22 841.41 447.22 841.41 433.37 866.96 433.37 866.96 428.5 835.91 428.5 835.91 471.5 868.48 471.5 868.48 466.7 841.41 466.7 841.41 451.9"/>
      <path class="cls-2" d="M910.17,452.4c6.07-1.2,10.37-4.74,10.37-10.69v-1.52c0-7.34-5.82-11.7-14.67-11.7h-22.13v43h5.5v-38.13h16.25c5.75,0,9.55,2.85,9.55,7.08v1.58c0,4.55-4.55,6.83-9.11,6.96h-13.62l2.76,4.62h9.79l10.56,17.9h6.07l-11.32-19.1Z"/>
    </g>
    <g>
      <g id="_Radial_Repeat_" data-name="&amp;lt;Radial Repeat&amp;gt;">
        <g id="_Radial_Repeat_-2" data-name="&amp;lt;Radial Repeat&amp;gt;">
          <path class="cls-1" d="M436.45,487.83l-12.12,10.11c-1.63,1.37-4.02,1.37-5.65,0l-12.12-10.11,9.94-20.36v-.02c.13.04.26.07.38.11.34.09.66.17.98.23.15.04.28.06.41.08.26.06.53.09.79.13.04,0,.08.02.11.02h.02c.06,0,.09.02.13.02.34.04.69.08,1.03.09.38.02.75.04,1.11.04h.06c.39,0,.77-.02,1.15-.04.21-.02.41-.04.6-.06.17,0,.34-.02.51-.06.04,0,.08,0,.13-.02.32-.04.66-.09,1-.15.09-.02.19-.04.28-.06.45-.09.9-.21,1.33-.34l.02.02,9.92,20.36Z"/>
          <path class="cls-1" d="M408.91,463.06c-.13-.09-.24-.21-.36-.34.09.13.23.24.34.36"/>
          <path class="cls-1" d="M416.88,467.56c-.11-.02-.24-.06-.38-.09v-.02c.13.04.26.07.38.11Z"/>
          <path class="cls-1" d="M426.51,467.45c-.43.13-.88.24-1.33.34.45-.09.9-.19,1.35-.32"/>
          <path class="cls-1" d="M434.12,463.06s.08-.06.13-.11c-.04.06-.08.09-.13.13v-.02Z"/>
          <path class="cls-1" d="M436.24,460.61c.11-.15.23-.3.34-.47,0,0-.02,0,0,.02-.23.34-.47.66-.73.98.13-.17.26-.34.39-.53Z"/>
          <path class="cls-1" d="M436.6,460.11c.19-.3.38-.6.56-.9-.15.26-.3.51-.45.75-.04.06-.08.13-.13.19,0-.02.02-.04.02-.04Z"/>
          <path class="cls-1" d="M438.25,457.05c.11-.28.23-.58.34-.88-.08.23-.17.45-.24.68-.04.07-.06.13-.09.21Z"/>
          <path class="cls-1" d="M438.59,456.16c.06-.13.11-.28.15-.43v.04c-.06.13-.09.26-.15.39Z"/>
          <path class="cls-1" d="M439.15,454.4c-.13.43-.26.9-.41,1.33.15-.45.28-.88.39-1.33h.02Z"/>
          <path class="cls-1" d="M439.15,445.61h-.02c-.02-.07-.04-.15-.06-.24.02.09.06.17.08.24Z"/>
        </g>
      </g>
      <g id="_Radial_Repeat_-3" data-name="&amp;lt;Radial Repeat&amp;gt;">
        <g id="_Radial_Repeat_-4" data-name="&amp;lt;Radial Repeat&amp;gt;">
          <path class="cls-1" d="M408.91,463.06l-.02.02-12.68,18.78-14.8-5.45c-2.01-.73-3.19-2.8-2.84-4.9l2.7-15.53,22.6-1.58c.04.09.06.17.06.24.09.3.17.58.26.86.04.08.06.15.08.23.02.04.02.09.04.13.49,1.41,1.15,2.76,1.97,4.04.04.06.09.13.13.21.34.51.69,1,1.11,1.46.11.15.23.28.36.43.02.02.04.04.06.07.02.02.04.04.06.04l.06.06s0,.04.02.04c.15.17.32.34.49.51.11.13.23.24.36.34Z"/>
          <path class="cls-1" d="M405.77,440.91c.06-.09.11-.21.19-.3-.15.24-.28.49-.41.73.06-.15.15-.28.23-.43Z"/>
          <path class="cls-1" d="M406.43,439.84h.02c-.15.23-.28.43-.41.66.11-.23.26-.43.39-.66Z"/>
          <path class="cls-1" d="M408.05,462.17s0,.04.02.04c-.04-.04-.09-.09-.13-.13-.02-.02-.04-.06-.06-.07.06.06.09.11.17.17Z"/>
          <path class="cls-1" d="M407.78,438.09c.09-.11.17-.21.28-.3-.19.19-.36.39-.54.62.08-.11.17-.21.26-.32Z"/>
          <path class="cls-1" d="M408.91,463.06c-.13-.09-.24-.21-.36-.34.09.13.23.24.34.36"/>
          <path class="cls-1" d="M421.51,431.84c.32,0,.62,0,.94.02-.64-.04-1.26-.04-1.88,0,.32-.02.62-.02.94-.02Z"/>
          <path class="cls-1" d="M424.99,432.16c.08.02.13.04.19.06-.3-.08-.6-.11-.9-.17.24.04.49.08.71.11Z"/>
          <path class="cls-1" d="M433.59,436.42s.06.06.09.11c-.06-.07-.11-.11-.17-.17.02.02.04.04.08.06Z"/>
          <path class="cls-1" d="M435.43,438.34c-.11-.15-.24-.3-.36-.43.02.02.02.04.04.04.11.13.21.26.32.39Z"/>
          <path class="cls-1" d="M436.6,460.11c.19-.3.38-.6.56-.9-.15.26-.3.51-.45.75-.04.04-.08.09-.11.15Z"/>
          <path class="cls-1" d="M438.59,456.16c-.08.23-.17.45-.24.68-.15.36-.32.71-.49,1.07.28-.56.53-1.15.73-1.75Z"/>
        </g>
      </g>
      <g id="_Radial_Repeat_-5" data-name="&amp;lt;Radial Repeat&amp;gt;">
        <g id="_Radial_Repeat_-6" data-name="&amp;lt;Radial Repeat&amp;gt;">
          <path class="cls-1" d="M408.89,436.93c-.15.13-.32.3-.45.45-.15.13-.26.28-.38.41-.19.19-.36.39-.54.62,0,0-.04.02-.02.04-.17.19-.32.38-.47.56-.04.06-.09.13-.13.19-.17.21-.32.41-.45.64-.15.23-.28.43-.41.66-.04.04-.06.08-.08.11-.15.24-.28.49-.41.73-.19.32-.36.66-.51,1-.09.19-.19.38-.26.58-.04.06-.06.11-.08.19-.09.21-.17.41-.24.62-.02,0,0,.02,0,.02-.08.17-.13.34-.19.51-.04.11-.06.21-.09.3-.11.36-.21.69-.3,1.05l-22.6-1.58-2.7-15.55c-.36-2.1.83-4.17,2.84-4.9l14.8-5.43,12.68,18.78Z"/>
          <path class="cls-1" d="M405.77,440.91c.06-.09.11-.21.19-.3-.15.24-.28.49-.41.73.06-.15.15-.28.23-.43Z"/>
          <path class="cls-1" d="M406.43,439.84c.15-.21.3-.43.47-.64-.17.21-.32.41-.45.64-.15.23-.28.43-.41.66.11-.23.26-.43.39-.66Z"/>
          <path class="cls-1" d="M407.88,462c.06.06.09.11.17.17-.06-.04-.08-.06-.11-.09-.02-.02-.04-.06-.06-.07Z"/>
          <path class="cls-1" d="M407.78,438.09c.21-.24.43-.49.66-.71-.15.13-.26.28-.38.41-.19.19-.36.39-.54.62.08-.11.17-.21.26-.32Z"/>
          <path class="cls-1" d="M421.51,431.84c.32,0,.62,0,.94.02-.64-.04-1.26-.04-1.88,0,.32-.02.62-.02.94-.02Z"/>
          <path class="cls-1" d="M424.99,432.16c.24.04.47.09.71.17-.17-.06-.34-.09-.53-.11-.3-.08-.6-.11-.9-.17.24.04.49.08.71.11Z"/>
          <path class="cls-1" d="M433.59,436.42s.09.09.13.13c0-.02-.02-.02-.04-.02-.06-.07-.11-.11-.17-.17.02.02.04.04.08.06Z"/>
          <path class="cls-1" d="M435.11,437.94c.11.13.21.26.32.39-.11-.15-.24-.3-.36-.43.02.02.02.04.04.04Z"/>
          <path class="cls-1" d="M436.24,460.61c.11-.15.23-.3.34-.47,0,0-.02,0,0,.02-.13.15-.23.3-.34.45Z"/>
          <path class="cls-1" d="M438.59,456.16c.06-.13.11-.28.15-.43v.04c-.06.13-.09.26-.15.39Z"/>
        </g>
      </g>
      <g id="_Radial_Repeat_-7" data-name="&amp;lt;Radial Repeat&amp;gt;">
        <g id="_Radial_Repeat_-8" data-name="&amp;lt;Radial Repeat&amp;gt;">
          <path class="cls-1" d="M436.45,412.17l-9.92,20.36h-.02c-.28-.09-.54-.15-.81-.21-.17-.06-.34-.09-.53-.11-.3-.08-.6-.11-.9-.17-.3-.04-.6-.08-.9-.11-.3-.04-.62-.06-.92-.08-.64-.04-1.26-.04-1.88,0-.3.02-.62.04-.92.08-.3.04-.6.07-.9.11-.56.08-1.13.21-1.69.34-.19.06-.38.09-.56.15l-9.94-20.36,12.12-10.12c1.63-1.35,4.02-1.35,5.65,0l12.12,10.12Z"/>
          <path class="cls-1" d="M408.91,463.06c-.13-.09-.24-.21-.36-.34.09.13.23.24.34.36"/>
          <path class="cls-1" d="M416.88,467.56c-.11-.02-.24-.06-.38-.09v-.02c.13.04.26.07.38.11Z"/>
          <path class="cls-1" d="M426.51,467.45c-.43.13-.88.24-1.33.34.45-.09.9-.19,1.35-.32"/>
          <path class="cls-1" d="M434.12,463.06s.08-.06.13-.11c-.04.06-.08.09-.13.13v-.02Z"/>
          <path class="cls-1" d="M436.24,460.61c.11-.15.23-.3.34-.47,0,0-.02,0,0,.02-.23.34-.47.66-.73.98.13-.17.26-.34.39-.53Z"/>
          <path class="cls-1" d="M436.6,460.11c.19-.3.38-.6.56-.9-.15.26-.3.51-.45.75-.04.06-.08.13-.13.19,0-.02.02-.04.02-.04Z"/>
          <path class="cls-1" d="M438.25,457.05c.11-.28.23-.58.34-.88-.08.23-.17.45-.24.68-.04.07-.06.13-.09.21Z"/>
          <path class="cls-1" d="M438.59,456.16c.06-.13.11-.28.15-.43v.04c-.06.13-.09.26-.15.39Z"/>
          <path class="cls-1" d="M439.15,454.4c-.13.43-.26.9-.41,1.33.15-.45.28-.88.39-1.33h.02Z"/>
          <path class="cls-1" d="M439.15,445.61h-.02c-.02-.07-.04-.15-.06-.24.02.09.06.17.08.24Z"/>
        </g>
      </g>
      <g id="_Radial_Repeat_-9" data-name="&amp;lt;Radial Repeat&amp;gt;">
        <g id="_Radial_Repeat_-10" data-name="&amp;lt;Radial Repeat&amp;gt;">
          <path class="cls-1" d="M464.43,428.48l-2.69,15.55-22.6,1.58h-.02c-.02-.07-.04-.15-.06-.24-.09-.38-.21-.75-.34-1.11-.02-.09-.06-.17-.09-.26-.06-.21-.15-.41-.23-.62-.17-.43-.36-.86-.56-1.3-.21-.43-.43-.86-.69-1.3-.09-.19-.21-.36-.32-.53-.08-.11-.15-.24-.23-.36-.11-.17-.24-.36-.38-.53-.08-.11-.15-.21-.23-.3-.17-.24-.38-.49-.58-.73-.11-.13-.21-.26-.32-.39t-.04-.04s-.08-.08-.11-.11c-.02-.02-.04-.06-.06-.08-.23-.24-.45-.47-.68-.68-.04-.06-.08-.09-.11-.11l12.68-18.78,14.82,5.43c1.99.73,3.19,2.8,2.82,4.9Z"/>
          <path class="cls-1" d="M405.77,440.91c.06-.09.11-.21.19-.3-.15.24-.28.49-.41.73.06-.15.15-.28.23-.43Z"/>
          <path class="cls-1" d="M406.43,439.84h.02c-.15.23-.28.43-.41.66.11-.23.26-.43.39-.66Z"/>
          <path class="cls-1" d="M408.05,462.17s0,.04.02.04c-.04-.04-.09-.09-.13-.13-.02-.02-.04-.06-.06-.07.06.06.09.11.17.17Z"/>
          <path class="cls-1" d="M407.78,438.09c.09-.11.17-.21.28-.3-.19.19-.36.39-.54.62.08-.11.17-.21.26-.32Z"/>
          <path class="cls-1" d="M408.91,463.06c-.13-.09-.24-.21-.36-.34.09.13.23.24.34.36"/>
          <path class="cls-1" d="M421.51,431.84c.32,0,.62,0,.94.02-.64-.04-1.26-.04-1.88,0,.32-.02.62-.02.94-.02Z"/>
          <path class="cls-1" d="M424.99,432.16c.08.02.13.04.19.06-.3-.08-.6-.11-.9-.17.24.04.49.08.71.11Z"/>
          <path class="cls-1" d="M433.59,436.42s.06.06.09.11c-.06-.07-.11-.11-.17-.17.02.02.04.04.08.06Z"/>
          <path class="cls-1" d="M435.43,438.34c-.11-.15-.24-.3-.36-.43.02.02.02.04.04.04.11.13.21.26.32.39Z"/>
          <path class="cls-1" d="M436.6,460.11c.19-.3.38-.6.56-.9-.15.26-.3.51-.45.75-.04.04-.08.09-.11.15Z"/>
          <path class="cls-1" d="M438.59,456.16c-.08.23-.17.45-.24.68-.15.36-.32.71-.49,1.07.28-.56.53-1.15.73-1.75Z"/>
        </g>
      </g>
      <g id="_Radial_Repeat_-11" data-name="&amp;lt;Radial Repeat&amp;gt;">
        <g id="_Radial_Repeat_-12" data-name="&amp;lt;Radial Repeat&amp;gt;">
          <path class="cls-1" d="M461.62,476.41l-14.82,5.45-12.68-18.78v-.02s.08-.06.13-.11c.08-.06.15-.13.21-.21.23-.23.45-.47.68-.71.09-.11.19-.23.28-.34.11-.13.21-.24.3-.38.04-.06.09-.11.13-.17.13-.17.26-.34.39-.53.11-.15.21-.3.34-.45v-.02s.02-.04.02-.04c.19-.3.38-.6.56-.9.02-.04.06-.09.08-.13.06-.04.08-.09.08-.13.19-.32.36-.64.53-.98,0-.02,0-.04.02-.06.13-.28.28-.56.39-.86.11-.28.23-.58.34-.88.06-.13.11-.28.15-.43.15-.45.28-.88.39-1.33h.02l22.6,1.58,2.69,15.53c.38,2.1-.83,4.17-2.82,4.9Z"/>
          <path class="cls-1" d="M405.77,440.91c.06-.09.11-.21.19-.3-.15.24-.28.49-.41.73.06-.15.15-.28.23-.43Z"/>
          <path class="cls-1" d="M406.43,439.84c.15-.21.3-.43.47-.64-.17.21-.32.41-.45.64-.15.23-.28.43-.41.66.11-.23.26-.43.39-.66Z"/>
          <path class="cls-1" d="M407.88,462c.06.06.09.11.17.17-.06-.04-.08-.06-.11-.09-.02-.02-.04-.06-.06-.07Z"/>
          <path class="cls-1" d="M407.78,438.09c.21-.24.43-.49.66-.71-.15.13-.26.28-.38.41-.19.19-.36.39-.54.62.08-.11.17-.21.26-.32Z"/>
          <path class="cls-1" d="M421.51,431.84c.32,0,.62,0,.94.02-.64-.04-1.26-.04-1.88,0,.32-.02.62-.02.94-.02Z"/>
          <path class="cls-1" d="M424.99,432.16c.24.04.47.09.71.17-.17-.06-.34-.09-.53-.11-.3-.08-.6-.11-.9-.17.24.04.49.08.71.11Z"/>
          <path class="cls-1" d="M433.59,436.42s.09.09.13.13c0-.02-.02-.02-.04-.02-.06-.07-.11-.11-.17-.17.02.02.04.04.08.06Z"/>
          <path class="cls-1" d="M435.11,437.94c.11.13.21.26.32.39-.11-.15-.24-.3-.36-.43.02.02.02.04.04.04Z"/>
          <path class="cls-1" d="M436.24,460.61c.11-.15.23-.3.34-.47,0,0-.02,0,0,.02-.13.15-.23.3-.34.45Z"/>
          <path class="cls-1" d="M438.59,456.16c.06-.13.11-.28.15-.43v.04c-.06.13-.09.26-.15.39Z"/>
        </g>
      </g>
    </g>
  </g>
</svg>