<?xml version="1.0" encoding="UTF-8"?>
<svg id="Layer_2" data-name="Layer 2" xmlns="http://www.w3.org/2000/svg" viewBox="0 0 964.86 174.02">
  <defs>
    <style>
      .cls-1 {
        fill: #56db56;
      }

      .cls-2 {
        fill: #f7fdf7;
      }
    </style>
  </defs>
  <g id="Layer_1-2" data-name="Layer 1">
    <g>
      <g>
        <path class="cls-2" d="M233.81,48.8h-35.85v76.42h34.61c20,0,35.96-9.1,35.96-29.11v-18.09c0-20-14.38-29.22-34.72-29.22ZM251.57,93.19c0,12.92-8.88,18.09-18.99,18.09h-17.76v-48.44h18.99c10,0,17.75,5.62,17.75,18.09v12.25Z"/>
        <polygon class="cls-2" points="354.07 80.72 311.59 80.72 311.59 48.8 294.51 48.8 294.51 125.22 311.59 125.22 311.59 94.77 354.07 94.77 354.07 125.22 371.27 125.22 371.27 48.8 354.07 48.8 354.07 80.72"/>
        <path class="cls-2" d="M434.04,62.17c9.44,0,16.29,2.02,22.25,5.51l6.29-12.36c-8.43-5.51-16.74-7.64-29.67-7.64-19.1,0-35.4,10.68-35.4,28.21v22.14c0,18.88,15.06,28.32,35.51,28.32,13.15,0,20.68-1.91,28.77-6.85l-5.73-12.7c-5.73,3.59-13.37,5.17-21.91,5.17-11.24,0-19.55-4.38-19.55-14.83v-20.23c0-9.44,9.1-14.72,19.44-14.72Z"/>
        <path class="cls-2" d="M522.96,48.8h-35.96v76.42h9.78v-28.99h26.41c18.43,0,28.77-6.97,28.77-20.34v-5.28c0-13.49-9.89-21.8-28.99-21.8ZM542.17,74.99c0,8.88-6.29,13.15-19.67,13.15h-25.73v-30.68h25.73c13.49,0,19.67,5.62,19.67,13.93v3.6Z"/>
        <path class="cls-2" d="M613.92,47.68h-1.8c-20,0-34.5,10.68-34.5,27.76v22.93c0,18.32,13.93,27.98,34.61,27.98h1.68c21.24,0,35.85-9.89,35.85-27.98v-22.93c0-17.08-15.4-27.76-35.85-27.76ZM639.88,97.58c0,13.6-10.23,20.23-25.96,20.23h-1.68c-15.06,0-24.84-6.52-24.84-20.23v-21.35c0-12.25,10.34-19.89,24.72-19.89h1.8c15.06,0,25.96,7.42,25.96,20v21.24Z"/>
        <polygon class="cls-2" points="757.26 113.31 733.66 48.8 724.56 48.8 700.96 113.2 682.42 48.8 672.19 48.8 694.44 125.22 705.68 125.22 729.06 62.17 752.32 125.22 763.56 125.22 786.03 48.8 775.8 48.8 757.26 113.31"/>
        <polygon class="cls-2" points="822.56 90.38 862.01 90.38 862.01 82.07 822.56 82.07 822.56 57.46 867.96 57.46 867.96 48.8 812.79 48.8 812.79 125.22 870.66 125.22 870.66 116.68 822.56 116.68 822.56 90.38"/>
        <path class="cls-2" d="M944.74,91.28c10.79-2.14,18.43-8.43,18.43-18.99v-2.7c0-13.04-10.34-20.79-26.07-20.79h-39.33v76.42h9.78V57.46h28.88c10.23,0,16.97,5.06,16.97,12.59v2.81c0,8.09-8.09,12.14-16.18,12.36h-24.21l4.91,8.2h17.39l18.77,31.8h10.79l-20.11-33.94Z"/>
      </g>
      <g>
        <g id="_Radial_Repeat_" data-name="&amp;lt;Radial Repeat&amp;gt;">
          <g id="_Radial_Repeat_-2" data-name="&amp;lt;Radial Repeat&amp;gt;">
            <path class="cls-1" d="M102.95,154.24l-21.53,17.96c-2.9,2.44-7.14,2.44-10.05,0l-21.53-17.96,17.66-36.18v-.03c.23.07.47.13.67.2.6.17,1.17.3,1.74.4.27.07.5.1.73.13.47.1.93.17,1.4.23.07,0,.13.03.2.03h.03c.1,0,.17.03.23.03.6.07,1.23.13,1.84.17.67.03,1.33.07,1.97.07h.1c.7,0,1.37-.03,2.04-.07.37-.03.73-.07,1.07-.1.3,0,.6-.03.9-.1.07,0,.13,0,.23-.03.57-.07,1.17-.17,1.77-.27.17-.03.33-.07.5-.1.8-.17,1.6-.37,2.37-.6l.03.03,17.62,36.18Z"/>
            <path class="cls-1" d="M54.02,110.21c-.23-.17-.43-.37-.63-.6.17.23.4.43.6.63"/>
            <path class="cls-1" d="M68.17,118.22c-.2-.03-.43-.1-.67-.17v-.03c.23.07.47.13.67.2Z"/>
            <path class="cls-1" d="M85.29,118.02c-.77.23-1.57.43-2.37.6.8-.17,1.6-.33,2.4-.57"/>
            <path class="cls-1" d="M98.81,110.21c.07-.03.13-.1.23-.2-.07.1-.13.17-.23.23v-.03Z"/>
            <path class="cls-1" d="M102.58,105.87c.2-.27.4-.53.6-.83,0,0-.03,0,0,.03-.4.6-.83,1.17-1.3,1.74.23-.3.47-.6.7-.93Z"/>
            <path class="cls-1" d="M103.22,104.97c.33-.53.67-1.07,1-1.6-.27.47-.53.9-.8,1.34-.07.1-.13.23-.23.33,0-.03.03-.07.03-.07Z"/>
            <path class="cls-1" d="M106.15,99.53c.2-.5.4-1.03.6-1.57-.13.4-.3.8-.43,1.2-.07.13-.1.23-.17.37Z"/>
            <path class="cls-1" d="M106.75,97.96c.1-.23.2-.5.27-.77v.07c-.1.23-.17.47-.27.7Z"/>
            <path class="cls-1" d="M107.75,94.83c-.23.77-.47,1.6-.73,2.37.27-.8.5-1.57.7-2.37h.03Z"/>
            <path class="cls-1" d="M107.75,79.2h-.03c-.03-.13-.07-.27-.1-.43.03.17.1.3.13.43Z"/>
          </g>
        </g>
        <g id="_Radial_Repeat_-3" data-name="&amp;lt;Radial Repeat&amp;gt;">
          <g id="_Radial_Repeat_-4" data-name="&amp;lt;Radial Repeat&amp;gt;">
            <path class="cls-1" d="M54.02,110.21l-.03.03-22.53,33.38-26.3-9.68c-3.57-1.3-5.67-4.97-5.04-8.71l4.81-27.6,40.15-2.8c.07.17.1.3.1.43.17.53.3,1.03.47,1.54.07.13.1.27.13.4.03.07.03.17.07.23.87,2.5,2.04,4.91,3.5,7.18.07.1.17.23.23.37.6.9,1.23,1.77,1.97,2.6.2.27.4.5.63.77.03.03.07.07.1.13.03.03.07.07.1.07l.1.1s0,.07.03.07c.27.3.57.6.87.9.2.23.4.43.63.6Z"/>
            <path class="cls-1" d="M48.44,70.86c.1-.17.2-.37.33-.53-.27.43-.5.87-.73,1.3.1-.27.27-.5.4-.77Z"/>
            <path class="cls-1" d="M49.61,68.96h.03c-.27.4-.5.77-.73,1.17.2-.4.47-.77.7-1.17Z"/>
            <path class="cls-1" d="M52.48,108.64s0,.07.03.07c-.07-.07-.17-.17-.23-.23-.03-.03-.07-.1-.1-.13.1.1.17.2.3.3Z"/>
            <path class="cls-1" d="M52.01,65.85c.17-.2.3-.37.5-.53-.33.33-.63.7-.97,1.1.13-.2.3-.37.47-.57Z"/>
            <path class="cls-1" d="M54.02,110.21c-.23-.17-.43-.37-.63-.6.17.23.4.43.6.63"/>
            <path class="cls-1" d="M76.41,54.74c.57,0,1.1,0,1.67.03-1.13-.07-2.24-.07-3.34,0,.57-.03,1.1-.03,1.67-.03Z"/>
            <path class="cls-1" d="M82.59,55.31c.13.03.23.07.33.1-.53-.13-1.07-.2-1.6-.3.43.07.87.13,1.27.2Z"/>
            <path class="cls-1" d="M97.87,62.88c.07.07.1.1.17.2-.1-.13-.2-.2-.3-.3.03.03.07.07.13.1Z"/>
            <path class="cls-1" d="M101.15,66.29c-.2-.27-.43-.53-.63-.77.03.03.03.07.07.07.2.23.37.47.57.7Z"/>
            <path class="cls-1" d="M103.22,104.97c.33-.53.67-1.07,1-1.6-.27.47-.53.9-.8,1.34-.07.07-.13.17-.2.27Z"/>
            <path class="cls-1" d="M106.75,97.96c-.13.4-.3.8-.43,1.2-.27.63-.57,1.27-.87,1.9.5-1,.93-2.04,1.3-3.1Z"/>
          </g>
        </g>
        <g id="_Radial_Repeat_-5" data-name="&amp;lt;Radial Repeat&amp;gt;">
          <g id="_Radial_Repeat_-6" data-name="&amp;lt;Radial Repeat&amp;gt;">
            <path class="cls-1" d="M53.98,63.78c-.27.23-.57.53-.8.8-.27.23-.47.5-.67.73-.33.33-.63.7-.97,1.1,0,0-.07.03-.03.07-.3.33-.57.67-.83,1-.07.1-.17.23-.23.33-.3.37-.57.73-.8,1.13-.27.4-.5.77-.73,1.17-.07.07-.1.13-.13.2-.27.43-.5.87-.73,1.3-.33.57-.63,1.17-.9,1.77-.17.33-.33.67-.47,1.03-.07.1-.1.2-.13.33-.17.37-.3.73-.43,1.1-.03,0,0,.03,0,.03-.13.3-.23.6-.33.9-.07.2-.1.37-.17.53-.2.63-.37,1.23-.53,1.87l-40.15-2.8L.11,48.76c-.63-3.74,1.47-7.41,5.04-8.71l26.3-9.65,22.53,33.38Z"/>
            <path class="cls-1" d="M48.44,70.86c.1-.17.2-.37.33-.53-.27.43-.5.87-.73,1.3.1-.27.27-.5.4-.77Z"/>
            <path class="cls-1" d="M49.61,68.96c.27-.37.53-.77.83-1.13-.3.37-.57.73-.8,1.13-.27.4-.5.77-.73,1.17.2-.4.47-.77.7-1.17Z"/>
            <path class="cls-1" d="M52.18,108.34c.1.1.17.2.3.3-.1-.07-.13-.1-.2-.17-.03-.03-.07-.1-.1-.13Z"/>
            <path class="cls-1" d="M52.01,65.85c.37-.43.77-.87,1.17-1.27-.27.23-.47.5-.67.73-.33.33-.63.7-.97,1.1.13-.2.3-.37.47-.57Z"/>
            <path class="cls-1" d="M76.41,54.74c.57,0,1.1,0,1.67.03-1.13-.07-2.24-.07-3.34,0,.57-.03,1.1-.03,1.67-.03Z"/>
            <path class="cls-1" d="M82.59,55.31c.43.07.83.17,1.27.3-.3-.1-.6-.17-.93-.2-.53-.13-1.07-.2-1.6-.3.43.07.87.13,1.27.2Z"/>
            <path class="cls-1" d="M97.87,62.88c.07.07.17.17.23.23,0-.03-.03-.03-.07-.03-.1-.13-.2-.2-.3-.3.03.03.07.07.13.1Z"/>
            <path class="cls-1" d="M100.58,65.59c.2.23.37.47.57.7-.2-.27-.43-.53-.63-.77.03.03.03.07.07.07Z"/>
            <path class="cls-1" d="M102.58,105.87c.2-.27.4-.53.6-.83,0,0-.03,0,0,.03-.23.27-.4.53-.6.8Z"/>
            <path class="cls-1" d="M106.75,97.96c.1-.23.2-.5.27-.77v.07c-.1.23-.17.47-.27.7Z"/>
          </g>
        </g>
        <g id="_Radial_Repeat_-7" data-name="&amp;lt;Radial Repeat&amp;gt;">
          <g id="_Radial_Repeat_-8" data-name="&amp;lt;Radial Repeat&amp;gt;">
            <path class="cls-1" d="M102.95,19.79l-17.62,36.18h-.03c-.5-.17-.97-.27-1.44-.37-.3-.1-.6-.17-.93-.2-.53-.13-1.07-.2-1.6-.3-.53-.07-1.07-.13-1.6-.2-.53-.07-1.1-.1-1.64-.13-1.13-.07-2.24-.07-3.34,0-.53.03-1.1.07-1.64.13-.53.07-1.07.13-1.6.2-1,.13-2,.37-3,.6-.33.1-.67.17-1,.27l-17.66-36.18L71.37,1.8c2.9-2.4,7.14-2.4,10.05,0l21.53,17.99Z"/>
            <path class="cls-1" d="M54.02,110.21c-.23-.17-.43-.37-.63-.6.17.23.4.43.6.63"/>
            <path class="cls-1" d="M68.17,118.22c-.2-.03-.43-.1-.67-.17v-.03c.23.07.47.13.67.2Z"/>
            <path class="cls-1" d="M85.29,118.02c-.77.23-1.57.43-2.37.6.8-.17,1.6-.33,2.4-.57"/>
            <path class="cls-1" d="M98.81,110.21c.07-.03.13-.1.23-.2-.07.1-.13.17-.23.23v-.03Z"/>
            <path class="cls-1" d="M102.58,105.87c.2-.27.4-.53.6-.83,0,0-.03,0,0,.03-.4.6-.83,1.17-1.3,1.74.23-.3.47-.6.7-.93Z"/>
            <path class="cls-1" d="M103.22,104.97c.33-.53.67-1.07,1-1.6-.27.47-.53.9-.8,1.34-.07.1-.13.23-.23.33,0-.03.03-.07.03-.07Z"/>
            <path class="cls-1" d="M106.15,99.53c.2-.5.4-1.03.6-1.57-.13.4-.3.8-.43,1.2-.07.13-.1.23-.17.37Z"/>
            <path class="cls-1" d="M106.75,97.96c.1-.23.2-.5.27-.77v.07c-.1.23-.17.47-.27.7Z"/>
            <path class="cls-1" d="M107.75,94.83c-.23.77-.47,1.6-.73,2.37.27-.8.5-1.57.7-2.37h.03Z"/>
            <path class="cls-1" d="M107.75,79.2h-.03c-.03-.13-.07-.27-.1-.43.03.17.1.3.13.43Z"/>
          </g>
        </g>
        <g id="_Radial_Repeat_-9" data-name="&amp;lt;Radial Repeat&amp;gt;">
          <g id="_Radial_Repeat_-10" data-name="&amp;lt;Radial Repeat&amp;gt;">
            <path class="cls-1" d="M152.68,48.76l-4.77,27.64-40.15,2.8h-.03c-.03-.13-.07-.27-.1-.43-.17-.67-.37-1.34-.6-1.97-.03-.17-.1-.3-.17-.47-.1-.37-.27-.73-.4-1.1-.3-.77-.63-1.54-1-2.3-.37-.77-.77-1.54-1.23-2.3-.17-.33-.37-.63-.57-.93-.13-.2-.27-.43-.4-.63-.2-.3-.43-.63-.67-.93-.13-.2-.27-.37-.4-.53-.3-.43-.67-.87-1.03-1.3-.2-.23-.37-.47-.57-.7t-.07-.07c-.07-.07-.13-.13-.2-.2-.03-.03-.07-.1-.1-.13-.4-.43-.8-.83-1.2-1.2-.07-.1-.13-.17-.2-.2l22.53-33.38,26.33,9.65c3.54,1.3,5.67,4.97,5.01,8.71Z"/>
            <path class="cls-1" d="M48.44,70.86c.1-.17.2-.37.33-.53-.27.43-.5.87-.73,1.3.1-.27.27-.5.4-.77Z"/>
            <path class="cls-1" d="M49.61,68.96h.03c-.27.4-.5.77-.73,1.17.2-.4.47-.77.7-1.17Z"/>
            <path class="cls-1" d="M52.48,108.64s0,.07.03.07c-.07-.07-.17-.17-.23-.23-.03-.03-.07-.1-.1-.13.1.1.17.2.3.3Z"/>
            <path class="cls-1" d="M52.01,65.85c.17-.2.3-.37.5-.53-.33.33-.63.7-.97,1.1.13-.2.3-.37.47-.57Z"/>
            <path class="cls-1" d="M54.02,110.21c-.23-.17-.43-.37-.63-.6.17.23.4.43.6.63"/>
            <path class="cls-1" d="M76.41,54.74c.57,0,1.1,0,1.67.03-1.13-.07-2.24-.07-3.34,0,.57-.03,1.1-.03,1.67-.03Z"/>
            <path class="cls-1" d="M82.59,55.31c.13.03.23.07.33.1-.53-.13-1.07-.2-1.6-.3.43.07.87.13,1.27.2Z"/>
            <path class="cls-1" d="M97.87,62.88c.07.07.1.1.17.2-.1-.13-.2-.2-.3-.3.03.03.07.07.13.1Z"/>
            <path class="cls-1" d="M101.15,66.29c-.2-.27-.43-.53-.63-.77.03.03.03.07.07.07.2.23.37.47.57.7Z"/>
            <path class="cls-1" d="M103.22,104.97c.33-.53.67-1.07,1-1.6-.27.47-.53.9-.8,1.34-.07.07-.13.17-.2.27Z"/>
            <path class="cls-1" d="M106.75,97.96c-.13.4-.3.8-.43,1.2-.27.63-.57,1.27-.87,1.9.5-1,.93-2.04,1.3-3.1Z"/>
          </g>
        </g>
        <g id="_Radial_Repeat_-11" data-name="&amp;lt;Radial Repeat&amp;gt;">
          <g id="_Radial_Repeat_-12" data-name="&amp;lt;Radial Repeat&amp;gt;">
            <path class="cls-1" d="M147.67,133.94l-26.33,9.68-22.53-33.38v-.03c.07-.03.13-.1.23-.2.13-.1.27-.23.37-.37.4-.4.8-.83,1.2-1.27.17-.2.33-.4.5-.6.2-.23.37-.43.53-.67.07-.1.17-.2.23-.3.23-.3.47-.6.7-.93.2-.27.37-.53.6-.8v-.03s.03-.07.03-.07c.33-.53.67-1.07,1-1.6.03-.07.1-.17.13-.23.1-.07.13-.17.13-.23.33-.57.63-1.14.93-1.74,0-.03,0-.07.03-.1.23-.5.5-1,.7-1.54.2-.5.4-1.03.6-1.57.1-.23.2-.5.27-.77.27-.8.5-1.57.7-2.37h.03l40.15,2.8,4.77,27.6c.67,3.74-1.47,7.41-5.01,8.71Z"/>
            <path class="cls-1" d="M48.44,70.86c.1-.17.2-.37.33-.53-.27.43-.5.87-.73,1.3.1-.27.27-.5.4-.77Z"/>
            <path class="cls-1" d="M49.61,68.96c.27-.37.53-.77.83-1.13-.3.37-.57.73-.8,1.13-.27.4-.5.77-.73,1.17.2-.4.47-.77.7-1.17Z"/>
            <path class="cls-1" d="M52.18,108.34c.1.1.17.2.3.3-.1-.07-.13-.1-.2-.17-.03-.03-.07-.1-.1-.13Z"/>
            <path class="cls-1" d="M52.01,65.85c.37-.43.77-.87,1.17-1.27-.27.23-.47.5-.67.73-.33.33-.63.7-.97,1.1.13-.2.3-.37.47-.57Z"/>
            <path class="cls-1" d="M76.41,54.74c.57,0,1.1,0,1.67.03-1.13-.07-2.24-.07-3.34,0,.57-.03,1.1-.03,1.67-.03Z"/>
            <path class="cls-1" d="M82.59,55.31c.43.07.83.17,1.27.3-.3-.1-.6-.17-.93-.2-.53-.13-1.07-.2-1.6-.3.43.07.87.13,1.27.2Z"/>
            <path class="cls-1" d="M97.87,62.88c.07.07.17.17.23.23,0-.03-.03-.03-.07-.03-.1-.13-.2-.2-.3-.3.03.03.07.07.13.1Z"/>
            <path class="cls-1" d="M100.58,65.59c.2.23.37.47.57.7-.2-.27-.43-.53-.63-.77.03.03.03.07.07.07Z"/>
            <path class="cls-1" d="M102.58,105.87c.2-.27.4-.53.6-.83,0,0-.03,0,0,.03-.23.27-.4.53-.6.8Z"/>
            <path class="cls-1" d="M106.75,97.96c.1-.23.2-.5.27-.77v.07c-.1.23-.17.47-.27.7Z"/>
          </g>
        </g>
      </g>
    </g>
  </g>
</svg>